<?xml version="1.0" encoding="UTF-8"?>
<svg id="Layer_2" xmlns="http://www.w3.org/2000/svg" viewBox="0 0 1920 113.05">
  <defs>
    <style>
      .cls-1 {
        fill: #48fd63;
      }
    </style>
  </defs>
  <g id="Layer_2-2" data-name="Layer_2">
    <g>
      <polygon class="cls-1" points="1687.1 86.28 1713.08 96.07 1684.81 89.36 1684.79 89.36 1667.21 113.05 0 113.05 0 0 1582.42 0 1621.14 61.42 1687.08 86.28 1687.1 86.28"/>
      <polygon class="cls-1" points="1752.66 49.26 1723.85 36.79 1723.82 36.77 1638.87 0 1751.18 0 1726.16 33.7 1752.66 49.26"/>
      <polygon class="cls-1" points="1742.75 107.25 1758.14 113.05 1737.99 113.05 1742.75 107.25"/>
      <polygon class="cls-1" points="1920 0 1920 113.05 1854.98 113.05 1845.12 89.28 1780.44 61.29 1825.13 6.76 1825.39 0 1920 0"/>
      <polygon points="1854.98 113.05 1758.14 113.05 1742.75 107.25 1737.99 113.05 1667.21 113.05 1684.79 89.36 1684.81 89.36 1713.08 96.07 1687.1 86.28 1687.08 86.28 1621.14 61.42 1582.42 0 1638.87 0 1723.82 36.77 1723.85 36.79 1752.66 49.26 1726.16 33.7 1751.18 0 1825.39 0 1825.13 6.76 1780.44 61.29 1845.12 89.28 1854.98 113.05"/>
      <polygon points="65.02 113.05 161.86 113.05 177.25 107.25 182.01 113.05 252.79 113.05 235.21 89.36 235.19 89.36 206.92 96.07 232.9 86.28 232.92 86.28 298.86 61.42 337.58 0 281.13 0 196.18 36.77 196.15 36.79 167.34 49.26 193.84 33.7 168.82 0 94.61 0 94.87 6.76 139.56 61.29 74.88 89.28 65.02 113.05"/>
      <polygon points="406.91 82.31 404.28 66.3 390.3 67.13 399.5 57.1 386.24 44.68 402.72 47.54 401.1 30.74 413.27 46.63 429.69 30.74 423.99 52.2 442.16 59.76 423.35 61.2 429.48 76.27 414.97 68.57 406.91 82.31"/>
      <polygon points="562.83 82.31 560.2 66.3 546.22 67.13 555.42 57.1 542.16 44.68 558.64 47.54 557.02 30.74 569.19 46.63 585.61 30.74 579.91 52.2 598.08 59.76 579.27 61.2 585.4 76.27 570.89 68.57 562.83 82.31"/>
      <polygon points="718.75 82.31 716.12 66.3 702.14 67.13 711.34 57.1 698.08 44.68 714.56 47.54 712.94 30.74 725.11 46.63 741.53 30.74 735.83 52.2 754 59.76 735.19 61.2 741.32 76.27 726.81 68.57 718.75 82.31"/>
      <polygon points="874.67 82.31 872.04 66.3 858.06 67.13 867.26 57.1 854 44.68 870.48 47.54 868.86 30.74 881.03 46.63 897.45 30.74 891.75 52.2 909.92 59.76 891.11 61.2 897.24 76.27 882.73 68.57 874.67 82.31"/>
      <polygon points="1030.59 82.31 1027.96 66.3 1013.98 67.13 1023.18 57.1 1009.92 44.68 1026.4 47.54 1024.78 30.74 1036.95 46.63 1053.37 30.74 1047.67 52.2 1065.84 59.76 1047.03 61.2 1053.16 76.27 1038.65 68.57 1030.59 82.31"/>
      <polygon points="1186.51 82.31 1183.88 66.3 1169.9 67.13 1179.1 57.1 1165.84 44.68 1182.32 47.54 1180.7 30.74 1192.87 46.63 1209.29 30.74 1203.59 52.2 1221.76 59.76 1202.95 61.2 1209.08 76.27 1194.57 68.57 1186.51 82.31"/>
      <polygon points="1342.42 82.31 1339.8 66.3 1325.82 67.13 1335.02 57.1 1321.76 44.68 1338.24 47.54 1336.62 30.74 1348.79 46.63 1365.21 30.74 1359.51 52.2 1377.68 59.76 1358.87 61.2 1365 76.27 1350.49 68.57 1342.42 82.31"/>
      <polygon points="1498.51 82.31 1495.88 66.3 1481.9 67.13 1491.1 57.1 1477.84 44.68 1494.33 47.54 1492.7 30.74 1504.87 46.63 1521.3 30.74 1515.6 52.2 1533.76 59.76 1514.95 61.2 1521.09 76.27 1506.58 68.57 1498.51 82.31"/>
    </g>
  </g>
</svg>